<svg width="40" height="40" viewBox="0 0 40 40" fill="none" xmlns="http://www.w3.org/2000/svg">
<rect width="40" height="40" rx="12" fill="#FCBCC1"/>
<rect x="14.5" y="20" width="3" height="8" rx="0.3" fill="#E64452"/>
<rect x="22" y="16" width="3" height="12" rx="0.5" fill="#E64452"/>
<path d="M12.6077 20.3549L15.7419 17.1107C15.8844 16.9631 16.1156 16.9631 16.2581 17.1107L19.3923 20.3549C19.6223 20.593 19.4594 21 19.1342 21H12.8658C12.5406 21 12.3777 20.593 12.6077 20.3549Z" fill="#E64452"/>
<path d="M19.1384 16.1937L23.1681 12.1383C23.3514 11.9539 23.6486 11.9539 23.8319 12.1383L27.8616 16.1937C28.1573 16.4912 27.9479 17 27.5297 17H19.4703C19.0521 17 18.8427 16.4912 19.1384 16.1937Z" fill="#E64452"/>
</svg>
