<svg width="48" height="48" viewBox="0 0 48 48" fill="none" xmlns="http://www.w3.org/2000/svg">
<g clip-path="url(#clip0_38_27605)">
<path fill-rule="evenodd" clip-rule="evenodd" d="M9.64258 22.7145C9.64258 20.4659 11.4654 18.6431 13.714 18.6431H34.2854C36.5341 18.6431 38.3569 20.4659 38.3569 22.7145V38.1431C38.3569 40.3917 36.5341 42.2145 34.2854 42.2145H13.714C11.4655 42.2145 9.64258 40.3917 9.64258 38.1431V22.7145ZM13.714 21.6431C13.1223 21.6431 12.6426 22.1228 12.6426 22.7145V38.1431C12.6426 38.7348 13.1223 39.2145 13.714 39.2145H34.2854C34.8772 39.2145 35.3569 38.7348 35.3569 38.1431V22.7145C35.3569 22.1228 34.8772 21.6431 34.2854 21.6431H13.714Z" fill="#4944B8"/>
<path fill-rule="evenodd" clip-rule="evenodd" d="M16.5754 8.86102C18.5445 6.89188 21.2152 5.78564 24 5.78564C26.7847 5.78564 29.4555 6.89187 31.4246 8.86098C31.4246 8.861 31.4246 8.86102 31.4246 8.86104M16.5754 8.86102C16.5754 8.86103 16.5754 8.86104 16.5754 8.86104C14.6062 10.8302 13.5 13.5009 13.5 16.2856V20.1428C13.5 20.9712 14.1716 21.6428 15 21.6428C15.8284 21.6428 16.5 20.9712 16.5 20.1428V16.2856C16.5 14.2965 17.2902 12.3889 18.6967 10.9824L18.6967 10.9823C20.1032 9.57582 22.0109 8.78564 24 8.78564C25.9891 8.78564 27.8968 9.57582 29.3033 10.9823L29.3033 10.9824C30.7099 12.3888 31.5 14.2965 31.5 16.2856V20.1428C31.5 20.9712 32.1716 21.6428 33 21.6428C33.8284 21.6428 34.5 20.9712 34.5 20.1428V16.2856C34.5 13.5009 33.3939 10.8302 31.4246 8.86104" fill="#4944B8"/>
<path fill-rule="evenodd" clip-rule="evenodd" d="M20 30.4399C20 28.2308 21.7909 26.4399 24 26.4399C26.2091 26.4399 28 28.2308 28 30.4399C28 32.6491 26.2091 34.4399 24 34.4399C21.7909 34.4399 20 32.6491 20 30.4399ZM24 29.4399C23.4477 29.4399 23 29.8877 23 30.4399C23 30.9922 23.4477 31.4399 24 31.4399C24.5523 31.4399 25 30.9922 25 30.4399C25 29.8877 24.5523 29.4399 24 29.4399Z" fill="#4944B8"/>
</g>
<defs>
<clipPath id="clip0_38_27605">
<rect width="36" height="36" fill="white" transform="translate(6 6)"/>
</clipPath>
</defs>
</svg>
