<svg width="40" height="40" viewBox="0 0 40 40" fill="none" xmlns="http://www.w3.org/2000/svg">
<rect width="40" height="40" rx="12" fill="#A9F6D6"/>
<path fill-rule="evenodd" clip-rule="evenodd" d="M27.455 13.6415C27.0645 13.251 26.4313 13.251 26.0408 13.6415L18.4817 21.2006C18.3645 21.3178 18.1746 21.3178 18.0574 21.2006L13.97 17.1131C13.5794 16.7226 12.9463 16.7226 12.5557 17.1131L11.1415 18.5274C10.751 18.9179 10.751 19.5511 11.1415 19.9416L15.4377 24.2377C15.4396 24.2396 15.4396 24.2427 15.4377 24.2447C15.4357 24.2466 15.4357 24.2497 15.4377 24.2516L17.5555 26.3694C17.946 26.76 18.5792 26.76 18.9697 26.3694L28.8692 16.47C29.2597 16.0794 29.2597 15.4463 28.8692 15.0557L27.455 13.6415Z" fill="#0AA622"/>
</svg>
